<?xml version="1.0"?>
<svg xmlns="http://www.w3.org/2000/svg" height="512px" viewBox="0 0 496.00007 496" width="512px"><path d="m488 0h-336c-4.414062 0-8 3.574219-8 8v24h-24c-4.414062 0-8 3.574219-8 8v33.472656c-9.289062 3.3125-16 12.113282-16 22.527344v29.480469c-18.886719 9.007812-32 28.238281-32 50.519531 0 9.632812 2.449219 18.703125 6.753906 26.632812l-70.371094 218.917969c-.78125 2.433594-.351562 5.097657 1.152344 7.160157 1.503906 2.074218 3.914063 3.289062 6.464844 3.289062h16v32h16v-32h16c3.726562 0 6.960938-2.566406 7.800781-6.199219l18.871094-81.800781h29.328125v144c0 4.425781 3.585938 8 8 8h336c4.417969 0 8-3.574219 8-8v-24h24c4.417969 0 8-3.574219 8-8v-448c0-4.425781-3.582031-8-8-8zm-376 96c0-4.414062 3.59375-8 8-8s8 3.585938 8 8v24.640625c-2.625-.375-5.28125-.640625-8-.640625s-5.375.265625-8 .640625zm8 40c22.054688 0 40 17.945312 40 40s-17.945312 40-40 40-40-17.945312-40-40 17.945312-40 40-40zm70.359375 280-43.992187-190.625c3.953124-2.117188 7.585937-4.734375 10.90625-7.703125l63.75 198.328125zm-70.359375-184c3.839844 0 7.59375-.390625 11.214844-1.136719l15.035156 65.136719h-52.496094l15.03125-65.136719c3.621094.746094 7.375 1.136719 11.214844 1.136719zm-70.359375 184h-30.664063l63.75-198.328125c3.3125 2.96875 6.953126 5.585937 10.90625 7.703125zm40.414063-104h59.890624l3.695313 16h-67.273437zm357.945312 168h-320v-136h29.328125l18.871094 81.800781c.839843 3.632813 4.074219 6.199219 7.800781 6.199219h16v32h16v-32h16c2.550781 0 4.960938-1.214844 6.464844-3.289062 1.503906-2.0625 1.933594-4.726563 1.152344-7.160157l-70.367188-218.917969c4.300781-7.929687 6.75-17 6.75-26.632812 0-22.28125-13.113281-41.503906-32-50.519531v-29.480469c0-10.414062-6.710938-19.214844-16-22.527344v-25.472656h256v56c0 4.425781 3.585938 8 8 8h56zm-11.3125-384h-36.6875v-36.6875zm43.3125 352h-16v-344c0-2.214844-.894531-4.214844-2.351562-5.664062l-63.984376-63.984376c-1.449218-1.457031-3.449218-2.351562-5.664062-2.351562h-232v-16h320zm0 0" fill="#edbc1a"/><path d="m120 200c13.230469 0 24-10.769531 24-24s-10.769531-24-24-24-24 10.769531-24 24 10.769531 24 24 24zm0-32c4.40625 0 8 3.585938 8 8 0 4.417969-3.59375 8-8 8s-8-3.582031-8-8c0-4.414062 3.59375-8 8-8zm0 0" fill="#edbc1a"/><path d="m328 142.121094c-10.96875-8.816406-24.871094-14.121094-40-14.121094-35.289062 0-64 28.710938-64 64 0 26.886719 16.6875 49.910156 40.230469 59.375-.101563 1.527344-.230469 3.066406-.230469 4.625 0 35.289062 28.710938 64 64 64s64-28.710938 64-64c0-1.558594-.128906-3.097656-.230469-4.625 23.542969-9.464844 40.230469-32.488281 40.230469-59.375 0-35.289062-28.710938-64-64-64-15.128906 0-29.03125 5.304688-40 14.121094zm7.976562 50.429687c-2.625-.328125-5.273437-.550781-7.976562-.550781s-5.351562.222656-7.976562.550781c0-.183593-.023438-.367187-.023438-.550781 0-9.785156 2.953125-18.878906 8-26.480469 5.046875 7.601563 8 16.695313 8 26.480469 0 .183594-.023438.367188-.023438.550781zm12.535157 20.113281c11.367187 5.398438 20.265625 15.128907 24.585937 27.054688-1.671875.175781-3.378906.28125-5.097656.28125-10.832031 0-20.792969-3.648438-28.832031-9.71875 3.976562-5.304688 7.152343-11.226562 9.34375-17.617188zm-20.511719 5.816407c-2.097656-3.152344-3.792969-6.585938-5.097656-10.199219 1.671875-.175781 3.378906-.28125 5.097656-.28125s3.425781.105469 5.097656.28125c-1.304687 3.613281-3 7.039062-5.097656 10.199219zm-11.167969 11.800781c-8.039062 6.070312-18 9.71875-28.832031 9.71875-1.71875 0-3.425781-.105469-5.097656-.28125 4.320312-11.925781 13.21875-21.648438 24.585937-27.054688 2.191407 6.390626 5.367188 12.3125 9.34375 17.617188zm-76.832031-38.28125c0-26.472656 21.527344-48 48-48 10.832031 0 20.792969 3.648438 28.832031 9.71875-8.015625 10.6875-12.832031 23.921875-12.832031 38.28125 0 1.558594.128906 3.097656.230469 4.625-17.207031 6.910156-30.703125 21.078125-36.742188 38.703125-16.214843-7.703125-27.488281-24.199219-27.488281-43.328125zm136 64c0 26.472656-21.527344 48-48 48s-48-21.527344-48-48c0-.183594.023438-.367188.023438-.550781 2.625.328125 5.273437.550781 7.976562.550781 15.128906 0 29.03125-5.304688 40-14.121094 10.96875 8.816406 24.871094 14.121094 40 14.121094 2.703125 0 5.351562-.222656 7.976562-.550781 0 .183593.023438.367187.023438.550781zm40-64c0 19.128906-11.273438 35.625-27.488281 43.335938-6.039063-17.625-19.535157-31.792969-36.742188-38.703126.101563-1.535156.230469-3.074218.230469-4.632812 0-14.359375-4.816406-27.59375-12.832031-38.28125 8.039062-6.070312 18-9.71875 28.832031-9.71875 26.472656 0 48 21.527344 48 48zm0 0" fill="#edbc1a"/><path d="m256 336h176v16h-176zm0 0" fill="#edbc1a"/><path d="m256 368h176v16h-176zm0 0" fill="#edbc1a"/><path d="m256 400h176v16h-176zm0 0" fill="#edbc1a"/><path d="m256 432h176v16h-176zm0 0" fill="#edbc1a"/></svg>
